<svg width="89.39375px" height="42.80003662109375px" xmlns="http://www.w3.org/2000/svg" viewBox="205.303125 53.599981689453124 89.39375 42.80003662109375" style="background: rgba(0, 0, 0, 0);" preserveAspectRatio="xMidYMid"><defs><filter id="editing-jagged" x="-100%" y="-100%" width="300%" height="300%"><feTurbulence result="turb" baseFrequency="0" numOctaves="1" seed="1"></feTurbulence><feDisplacementMap in="SourceGraphic" in2="turb" scale="10"></feDisplacementMap></filter></defs><g filter="url(#editing-jagged)"><g transform="translate(224.41001915931702, 80.0399980545044)"><path d="M7.64-5.11L7.64-5.11L7.64-5.11Q7.95-5.02 8.20-4.84L8.20-4.84L8.20-4.84Q8.46-4.66 8.63-4.39L8.63-4.39L8.63-4.39Q8.81-4.11 8.91-3.73L8.91-3.73L8.91-3.73Q9.00-3.36 9.00-2.87L9.00-2.87L9.00-2.38L9.00-2.38Q9.00 0 6.62 0L6.62 0L1.26 0L1.26-9.80L6.34-9.80L6.34-9.80Q8.72-9.80 8.72-7.42L8.72-7.42L8.72-7.24L8.72-7.24Q8.72-6.41 8.46-5.89L8.46-5.89L8.46-5.89Q8.20-5.37 7.64-5.11ZM6.58-4.27L2.63-4.27L2.63-1.37L6.58-1.37L6.58-1.37Q7.14-1.37 7.38-1.63L7.38-1.63L7.38-1.63Q7.63-1.89 7.63-2.45L7.63-2.45L7.63-3.21L7.63-3.21Q7.63-3.77 7.38-4.02L7.38-4.02L7.38-4.02Q7.14-4.27 6.58-4.27L6.58-4.27ZM6.30-8.43L2.63-8.43L2.63-5.64L6.40-5.64L6.40-5.64Q6.90-5.66 7.13-5.92L7.13-5.92L7.13-5.92Q7.35-6.17 7.35-6.71L7.35-6.71L7.35-7.35L7.35-7.35Q7.35-7.91 7.10-8.17L7.10-8.17L7.10-8.17Q6.86-8.43 6.30-8.43L6.30-8.43ZM11.03-7.28L12.38-7.28L12.38 0L11.03 0L11.03-7.28ZM10.96-8.68L10.96-10.08L12.45-10.08L12.45-8.68L10.96-8.68ZM14.55-1.35L19.09-1.35L19.09-3.04L15.89-3.04L15.89-3.04Q15.61-3.04 15.37-3.14L15.37-3.14L15.37-3.14Q15.12-3.25 14.94-3.43L14.94-3.43L14.94-3.43Q14.76-3.61 14.65-3.86L14.65-3.86L14.65-3.86Q14.55-4.10 14.55-4.38L14.55-4.38L14.55-5.93L14.55-5.93Q14.55-6.21 14.65-6.46L14.65-6.46L14.65-6.46Q14.76-6.71 14.94-6.89L14.94-6.89L14.94-6.89Q15.12-7.07 15.37-7.17L15.37-7.17L15.37-7.17Q15.61-7.28 15.89-7.28L15.89-7.28L20.15-7.28L20.15-5.93L15.89-5.93L15.89-4.38L19.09-4.38L19.09-4.38Q19.37-4.38 19.61-4.28L19.61-4.28L19.61-4.28Q19.85-4.17 20.04-3.99L20.04-3.99L20.04-3.99Q20.22-3.81 20.33-3.56L20.33-3.56L20.33-3.56Q20.43-3.32 20.43-3.04L20.43-3.04L20.43-1.35L20.43-1.35Q20.43-1.07 20.33-0.82L20.33-0.82L20.33-0.82Q20.22-0.57 20.04-0.39L20.04-0.39L20.04-0.39Q19.85-0.21 19.61-0.11L19.61-0.11L19.61-0.11Q19.37 0 19.09 0L19.09 0L14.55 0L14.55-1.35ZM28.97-5.93L28.97 0L27.62 0L27.62-5.93L23.87-5.93L23.87 0L22.53 0L22.53-10.08L23.87-10.08L23.87-6.00L23.87-6.00Q23.88-6.26 23.99-6.50L23.99-6.50L23.99-6.50Q24.10-6.73 24.28-6.91L24.28-6.91L24.28-6.91Q24.47-7.08 24.71-7.18L24.71-7.18L24.71-7.18Q24.94-7.28 25.22-7.28L25.22-7.28L27.62-7.28L27.62-7.28Q27.90-7.28 28.15-7.17L28.15-7.17L28.15-7.17Q28.40-7.07 28.58-6.89L28.58-6.89L28.58-6.89Q28.76-6.71 28.86-6.46L28.86-6.46L28.86-6.46Q28.97-6.21 28.97-5.93L28.97-5.93ZM37.65-5.93L37.65 0L36.31 0L36.31-5.93L32.55-5.93L32.55 0L31.21 0L31.21-7.28L32.55-7.28L32.55-6.00L32.55-6.00Q32.57-6.26 32.68-6.50L32.68-6.50L32.68-6.50Q32.79-6.73 32.97-6.91L32.97-6.91L32.97-6.91Q33.15-7.08 33.39-7.18L33.39-7.18L33.39-7.18Q33.63-7.28 33.90-7.28L33.90-7.28L36.31-7.28L36.31-7.28Q36.59-7.28 36.83-7.17L36.83-7.17L36.83-7.17Q37.08-7.07 37.26-6.89L37.26-6.89L37.26-6.89Q37.44-6.71 37.55-6.46L37.55-6.46L37.55-6.46Q37.65-6.21 37.65-5.93L37.65-5.93ZM46.19-5.93L46.19-1.35L46.19-1.35Q46.19-1.07 46.08-0.82L46.08-0.82L46.08-0.82Q45.98-0.57 45.80-0.39L45.80-0.39L45.80-0.39Q45.62-0.21 45.37-0.11L45.37-0.11L45.37-0.11Q45.13 0 44.85 0L44.85 0L41.23 0L41.23 0Q40.96 0 40.71-0.11L40.71-0.11L40.71-0.11Q40.47-0.21 40.29-0.39L40.29-0.39L40.29-0.39Q40.11-0.57 40.00-0.82L40.00-0.82L40.00-0.82Q39.89-1.07 39.89-1.35L39.89-1.35L39.89-5.93L39.89-5.93Q39.89-6.21 40.00-6.46L40.00-6.46L40.00-6.46Q40.11-6.71 40.29-6.89L40.29-6.89L40.29-6.89Q40.47-7.07 40.71-7.17L40.71-7.17L40.71-7.17Q40.96-7.28 41.23-7.28L41.23-7.28L44.85-7.28L44.85-7.28Q45.13-7.28 45.37-7.17L45.37-7.17L45.37-7.17Q45.62-7.07 45.80-6.89L45.80-6.89L45.80-6.89Q45.98-6.71 46.08-6.46L46.08-6.46L46.08-6.46Q46.19-6.21 46.19-5.93L46.19-5.93ZM44.85-5.93L41.23-5.93L41.23-1.35L44.85-1.35L44.85-5.93ZM48.50-7.28L49.85-7.28L49.85 0L48.50 0L48.50-7.28ZM48.43-8.68L48.43-10.08L49.92-10.08L49.92-8.68L48.43-8.68Z" fill="#444"></path></g></g><style>text {
  font-size: 64px;
  font-family: Arial Black;
  dominant-baseline: central;
  text-anchor: middle;
}</style></svg>