<svg width="132.00766601562498px" height="114.8px" xmlns="http://www.w3.org/2000/svg" viewBox="183.9961669921875 17.6 132.00766601562498 114.8" style="background: rgba(0, 0, 0, 0);" preserveAspectRatio="xMidYMid"><defs><filter id="editing-jagged" x="-100%" y="-100%" width="300%" height="300%"><feTurbulence result="turb" baseFrequency="0" numOctaves="1" seed="1"></feTurbulence><feDisplacementMap in="SourceGraphic" in2="turb" scale="10"></feDisplacementMap></filter></defs><g filter="url(#editing-jagged)"><g transform="translate(207.60591840744019, 95.30500030517578)"><path d="M30.73-17.39L11.02-17.39L11.02-17.39Q9.83-17.39 8.77-17.86L8.77-17.86L8.77-17.86Q7.70-18.32 6.91-19.10L6.91-19.10L6.91-19.10Q6.12-19.88 5.66-20.94L5.66-20.94L5.66-20.94Q5.21-22.00 5.21-23.19L5.21-23.19L5.21-34.81L5.21-34.81Q5.21-36.00 5.66-37.06L5.66-37.06L5.66-37.06Q6.12-38.12 6.91-38.90L6.91-38.90L6.91-38.90Q7.70-39.68 8.77-40.14L8.77-40.14L8.77-40.14Q9.83-40.61 11.02-40.61L11.02-40.61L30.73-40.61L30.73-40.61Q31.92-40.61 32.98-40.14L32.98-40.14L32.98-40.14Q34.04-39.68 34.83-38.90L34.83-38.90L34.83-38.90Q35.63-38.12 36.08-37.06L36.08-37.06L36.08-37.06Q36.53-36.00 36.53-34.81L36.53-34.81L36.53-29.57L30.73-29.57L30.73-34.81L11.02-34.81L11.02-23.19L30.73-23.19L30.73-23.19Q31.92-23.19 32.98-22.74L32.98-22.74L32.98-22.74Q34.04-22.29 34.83-21.50L34.83-21.50L34.83-21.50Q35.63-20.70 36.08-19.64L36.08-19.64L36.08-19.64Q36.53-18.58 36.53-17.39L36.53-17.39L36.53-5.81L36.53-5.81Q36.53-4.62 36.08-3.55L36.08-3.55L36.08-3.55Q35.63-2.49 34.83-1.70L34.83-1.70L34.83-1.70Q34.04-0.91 32.98-0.45L32.98-0.45L32.98-0.45Q31.92 0 30.73 0L30.73 0L10.45 0L10.45 0Q9.26 0 8.20-0.45L8.20-0.45L8.20-0.45Q7.14-0.91 6.34-1.70L6.34-1.70L6.34-1.70Q5.55-2.49 5.10-3.55L5.10-3.55L5.10-3.55Q4.64-4.62 4.64-5.81L4.64-5.81L4.64-11.02L10.45-11.02L10.45-5.81L30.73-5.81L30.73-17.39ZM46.98-40.61L52.79-40.61L52.79-23.08L72.16-40.61L80.34-40.61L58.37-20.70L81.22 0L73.04 0L52.79-18.27L52.79 0L46.98 0L46.98-40.61Z" fill="#444"></path></g></g><style>text {
  font-size: 64px;
  font-family: Arial Black;
  dominant-baseline: central;
  text-anchor: middle;
}</style></svg>